<svg version="1.1" xmlns="http://www.w3.org/2000/svg" viewBox="-2265.017702814371 -588.7523387740908 4530.035405628742 1174.424141994247" fill="none" stroke="black" stroke-width="0.6%" vector-effect="non-scaling-stroke">
    <path d="M 2263.44203 -60.67422 L -0.54786 23.6818 L -0.54786 -0.09039 L -52.43223 -12.17234 L -52.43223 11.59986" />
    <path d="M 2263.44203 -84.44641 L -0.54786 -0.09039" />
    <path d="M 2263.44203 -60.67422 L 2263.44203 -84.44641 L 2211.55766 -96.52836 L -52.43223 -12.17234" />
    <path d="M 2263.44203 -60.67422 L 2264.0177 -60.54016 L 2264.0177 337.72077" />
    <path d="M 0.02781 23.81586 L 2264.0177 -60.54016" />
    <path d="M -0.54786 23.6818 L 0.02781 23.81586 L 0.02781 422.07679 L -2264.0177 -105.13539" />
    <path d="M 2206.98946 -96.35815 L 2206.98946 -97.59212 L 2155.10508 -109.67407 L -108.88481 -25.31805 L -108.88481 -1.54585" />
    <path d="M 2150.53688 -109.50386 L 2150.53688 -110.73783 L 2098.6525 -122.81978 L -165.33739 -38.46376 L -165.33739 -14.69156" />
    <path d="M 2094.0843 -122.64957 L 2094.0843 -123.88354 L 2042.19992 -135.96549 L -221.78997 -51.60947 L -221.78997 -27.83727" />
    <path d="M 2037.63172 -135.79528 L 2037.63172 -137.02925 L 1985.74734 -149.1112 L -278.24255 -64.75518 L -278.24255 -40.98298" />
    <path d="M 1981.17914 -148.94099 L 1981.17914 -150.17496 L 1929.29477 -162.25691 L -334.69513 -77.90089 L -334.69513 -54.12869" />
    <path d="M 1924.72656 -162.0867 L 1924.72656 -163.32067 L 1872.84219 -175.40262 L -391.1477 -91.0466 L -391.1477 -67.2744" />
    <path d="M 1868.27399 -175.23241 L 1868.27399 -176.46638 L 1816.38961 -188.54833 L -447.60028 -104.19231 L -447.60028 -80.42011" />
    <path d="M 1811.82141 -188.37812 L 1811.82141 -189.61209 L 1759.93703 -201.69404 L -504.05286 -117.33802 L -504.05286 -93.56582" />
    <path d="M 1755.36883 -201.52383 L 1755.36883 -202.7578 L 1703.48445 -214.83975 L -560.50544 -130.48373 L -560.50544 -106.71153" />
    <path d="M 1698.91625 -214.66954 L 1698.91625 -215.90351 L 1647.03187 -227.98546 L -616.95802 -143.62944 L -616.95802 -119.85724" />
    <path d="M 1642.46367 -227.81525 L 1642.46367 -229.04922 L 1590.5793 -241.13117 L -673.4106 -156.77515 L -673.4106 -133.00296" />
    <path d="M 1586.01109 -240.96096 L 1586.01109 -242.19494 L 1534.12672 -254.27688 L -729.86317 -169.92086 L -729.86317 -146.14867" />
    <path d="M 1529.55851 -254.10667 L 1529.55851 -255.34065 L 1477.67414 -267.42259 L -786.31575 -183.06657 L -786.31575 -159.29438" />
    <path d="M 1473.10594 -267.25238 L 1473.10594 -268.48636 L 1421.22156 -280.5683 L -842.76833 -196.21228 L -842.76833 -172.44009" />
    <path d="M 1416.65336 -280.39809 L 1416.65336 -281.63207 L 1364.76898 -293.71401 L -899.22091 -209.35799 L -899.22091 -185.5858" />
    <path d="M -0.02781 -587.75234 L 1276.76383 -290.43495" />
    <path d="M -57.00044 10.53609 L -52.43223 11.59986" />
    <path d="M -57.00044 10.53609 L -57.00044 -13.2361 L -108.88481 -25.31805" />
    <path d="M -113.45301 -2.60962 L -108.88481 -1.54585" />
    <path d="M -113.45301 -2.60962 L -113.45301 -26.38181 L -165.33739 -38.46376" />
    <path d="M -169.90559 -15.75533 L -165.33739 -14.69156" />
    <path d="M -169.90559 -15.75533 L -169.90559 -39.52752 L -221.78997 -51.60947" />
    <path d="M -226.35817 -28.90104 L -221.78997 -27.83727" />
    <path d="M -226.35817 -28.90104 L -226.35817 -52.67323 L -278.24255 -64.75518" />
    <path d="M -282.81075 -42.04675 L -278.24255 -40.98298" />
    <path d="M -282.81075 -42.04675 L -282.81075 -65.81894 L -334.69513 -77.90089" />
    <path d="M -339.26333 -55.19246 L -334.69513 -54.12869" />
    <path d="M -339.26333 -55.19246 L -339.26333 -78.96465 L -391.1477 -91.0466" />
    <path d="M -395.71591 -68.33817 L -391.1477 -67.2744" />
    <path d="M -395.71591 -68.33817 L -395.71591 -92.11036 L -447.60028 -104.19231" />
    <path d="M -452.16848 -81.48388 L -447.60028 -80.42011" />
    <path d="M -452.16848 -81.48388 L -452.16848 -105.25607 L -504.05286 -117.33802" />
    <path d="M -508.62106 -94.62959 L -504.05286 -93.56582" />
    <path d="M -508.62106 -94.62959 L -508.62106 -118.40178 L -560.50544 -130.48373" />
    <path d="M -565.07364 -107.7753 L -560.50544 -106.71153" />
    <path d="M -565.07364 -107.7753 L -565.07364 -131.54749 L -616.95802 -143.62944" />
    <path d="M -621.52622 -120.92101 L -616.95802 -119.85724" />
    <path d="M -621.52622 -120.92101 L -621.52622 -144.6932 L -673.4106 -156.77515" />
    <path d="M -677.9788 -134.06672 L -673.4106 -133.00296" />
    <path d="M -677.9788 -134.06672 L -677.9788 -157.83891 L -729.86317 -169.92086" />
    <path d="M -734.43138 -147.21243 L -729.86317 -146.14867" />
    <path d="M -734.43138 -147.21243 L -734.43138 -170.98463 L -786.31575 -183.06657" />
    <path d="M -790.88395 -160.35814 L -786.31575 -159.29438" />
    <path d="M -790.88395 -160.35814 L -790.88395 -184.13034 L -842.76833 -196.21228" />
    <path d="M -847.33653 -173.50385 L -842.76833 -172.44009" />
    <path d="M -847.33653 -173.50385 L -847.33653 -197.27605 L -899.22091 -209.35799" />
    <path d="M -2264.0177 -503.39632 L -899.22091 -185.5858" />
    <path d="M -2264.0177 -503.39632 L -2264.0177 -105.13539" />
    <path d="M 0.02781 422.07679 L 2264.0177 337.72077" />
    <path d="M -52.43223 10.36588 L -57.00044 10.53609" />
    <path d="M 2206.98946 -97.59212 L -57.00044 -13.2361" />
    <path d="M 2150.53688 -110.73783 L -113.45301 -26.38181" />
    <path d="M -108.88481 -2.77983 L -113.45301 -2.60962" />
    <path d="M -165.33739 -15.92554 L -169.90559 -15.75533" />
    <path d="M 2094.0843 -123.88354 L -169.90559 -39.52752" />
    <path d="M -221.78997 -29.07125 L -226.35817 -28.90104" />
    <path d="M 2037.63172 -137.02925 L -226.35817 -52.67323" />
    <path d="M -278.24255 -42.21696 L -282.81075 -42.04675" />
    <path d="M 1981.17914 -150.17496 L -282.81075 -65.81894" />
    <path d="M 1924.72656 -163.32067 L -339.26333 -78.96465" />
    <path d="M -334.69513 -55.36267 L -339.26333 -55.19246" />
    <path d="M -391.1477 -68.50838 L -395.71591 -68.33817" />
    <path d="M 1868.27399 -176.46638 L -395.71591 -92.11036" />
    <path d="M -447.60028 -81.65409 L -452.16848 -81.48388" />
    <path d="M 1811.82141 -189.61209 L -452.16848 -105.25607" />
    <path d="M -504.05286 -94.7998 L -508.62106 -94.62959" />
    <path d="M 1755.36883 -202.7578 L -508.62106 -118.40178" />
    <path d="M 1698.91625 -215.90351 L -565.07364 -131.54749" />
    <path d="M -560.50544 -107.94551 L -565.07364 -107.7753" />
    <path d="M -616.95802 -121.09122 L -621.52622 -120.92101" />
    <path d="M 1642.46367 -229.04922 L -621.52622 -144.6932" />
    <path d="M -673.4106 -134.23693 L -677.9788 -134.06672" />
    <path d="M 1586.01109 -242.19494 L -677.9788 -157.83891" />
    <path d="M -729.86317 -147.38264 L -734.43138 -147.21243" />
    <path d="M 1529.55851 -255.34065 L -734.43138 -170.98463" />
    <path d="M 1473.10594 -268.48636 L -790.88395 -184.13034" />
    <path d="M -786.31575 -160.52835 L -790.88395 -160.35814" />
    <path d="M -842.76833 -173.67406 L -847.33653 -173.50385" />
    <path d="M 1416.65336 -281.63207 L -847.33653 -197.27605" />
    <path d="M -0.02781 -587.75234 L -2264.0177 -503.39632" />
    <path d="M -2251.01898 -502.87742 L -1805.63785 -399.16468 L 439.78257 -482.8288 L -5.59856 -586.54154 L -5.59856 -558.24717" />
    <path d="M -5.59856 -586.54154 L -2251.01898 -502.87742" />
    <path d="M -900.01964 -188.27981 L -899.22091 -188.30957" />
    <path d="M -1345.40078 -291.99255 L -900.01964 -188.27981" />
    <path d="M 1267.4791 -290.089 L 900.01964 -375.65667 L 900.01964 -347.3623" />
    <path d="M 900.01964 -375.65667 L -1345.40078 -291.99255" />
    <path d="M -1352.82875 -293.72225 L 892.59167 -377.38637 L 447.21054 -481.09911 L 447.21054 -452.80473" />
    <path d="M -1798.20988 -397.43498 L -1352.82875 -293.72225" />
    <path d="M 447.21054 -481.09911 L -1798.20988 -397.43498" />
    <path d="M 18.80878 421.37701 A 295.275 109.18792 267.86615 0 1 -72.18589 584.6438 A 295.275 109.18792 267.86615 0 1 -184.40079 379.13021" />
    <path d="M 735.53968 554.54803 A 295.275 109.18792 87.86615 0 0 826.53434 391.28124" />
    <path d="M 1411.5191 369.48477 A 295.275 109.18792 267.86615 0 1 1320.52443 532.75156 A 295.275 109.18792 267.86615 0 1 1217.63233 376.70897" />
    <path d="M 2128.24999 502.65579 A 295.275 109.18792 87.86615 0 0 2219.24466 339.38901" />
    <path d="M 1175.69436 378.27158 A 295.275 109.18792 267.86615 0 1 1097.68531 480.8606 A 295.275 109.18792 267.86615 0 1 1012.25824 384.36119" />
    <path d="M -204.79868 374.3803 A 295.275 109.18792 267.86615 0 1 -295.02501 532.75283 A 295.275 109.18792 267.86615 0 1 -407.23992 327.23925" />
    <path d="M -434.76865 320.82883 A 295.275 109.18792 267.86615 0 1 -524.99499 479.20136 A 295.275 109.18792 267.86615 0 1 -637.20989 273.68778" />
    <path d="M 919.55794 387.81519 A 295.275 109.18792 267.86615 0 1 867.71533 427.30912 A 295.275 109.18792 267.86615 0 1 824.19462 405.42695" />
    <path d="M -657.60778 268.93786 A 295.275 109.18792 267.86615 0 1 -747.83411 427.3104 A 295.275 109.18792 267.86615 0 1 -860.04902 221.79681" />
    <path d="M 988.79838 -349.18153 A 295.275 109.18792 87.86615 0 0 977.80409 -350.26054 L 170.07853 -320.16477 A 295.275 109.18792 267.86615 0 1 181.07282 -319.08576 A 295.275 109.18792 267.86615 0 1 243.65496 -251.94142" />
    <path d="M 1046.04825 -292.60938 A 295.275 109.18792 87.86615 0 0 988.79838 -349.18153" />
    <path d="M 101.78304 -246.65529 A 295.275 109.18792 267.86615 0 1 170.07853 -320.16477" />
    <path d="M 1211.6375 -297.29057 A 295.275 109.18792 87.86615 0 0 1200.64322 -298.36957 L 392.91766 -268.27381 A 295.275 109.18792 267.86615 0 1 403.91194 -267.1948 A 295.275 109.18792 267.86615 0 1 422.50986 -258.60554" />
    <path d="M 1230.23542 -288.70131 A 295.275 109.18792 87.86615 0 0 1211.6375 -297.29057" />
    <path d="M 364.12698 -256.4302 A 295.275 109.18792 267.86615 0 1 392.91766 -268.27381" />
    <path d="M -403.91194 -297.28929 A 295.275 109.18792 87.86615 0 0 -414.90623 -298.3683 L -1222.63179 -268.27253 A 295.275 109.18792 267.86615 0 1 -1211.6375 -267.19352 A 295.275 109.18792 267.86615 0 1 -1188.96883 -255.56535" />
    <path d="M -346.66207 -240.71715 A 295.275 109.18792 87.86615 0 0 -403.91194 -297.28929" />
    <path d="M -1110.41688 163.49543 A 295.275 109.18792 267.86615 0 1 -1200.64322 321.86796 A 295.275 109.18792 267.86615 0 1 -1312.85812 116.35438" />
    <path d="M -1234.30617 -266.12274 A 295.275 109.18792 267.86615 0 1 -1222.63179 -268.27253" />
    <path d="M -181.07282 -245.39833 A 295.275 109.18792 87.86615 0 0 -192.0671 -246.47734 L -999.79266 -216.38157 A 295.275 109.18792 267.86615 0 1 -988.79838 -215.30256 A 295.275 109.18792 267.86615 0 1 -966.1297 -203.67439" />
    <path d="M -162.4749 -236.80907 A 295.275 109.18792 87.86615 0 0 -181.07282 -245.39833" />
    <path d="M -887.57776 215.38639 A 295.275 109.18792 267.86615 0 1 -977.80409 373.75893 A 295.275 109.18792 267.86615 0 1 -1090.019 168.24534" />
    <path d="M -1011.46705 -214.23177 A 295.275 109.18792 267.86615 0 1 -999.79266 -216.38157" />
    <path d="M 535.98927 -454.62396 A 295.275 109.18792 87.86615 0 0 524.99499 -455.70297 L -282.73057 -425.6072 A 295.275 109.18792 267.86615 0 1 -271.73629 -424.5282 A 295.275 109.18792 267.86615 0 1 -200.18488 -336.66963" />
    <path d="M 593.23915 -398.05182 A 295.275 109.18792 87.86615 0 0 535.98927 -454.62396" />
    <path d="M -358.42897 -330.77347 A 295.275 109.18792 267.86615 0 1 -282.73057 -425.6072" />
    <path d="M 758.8284 -402.733 A 295.275 109.18792 87.86615 0 0 747.83411 -403.81201 L -59.89145 -373.71624 A 295.275 109.18792 267.86615 0 1 -48.89716 -372.63723 A 295.275 109.18792 267.86615 0 1 -9.45242 -343.7763" />
    <path d="M 798.27314 -373.87207 A 295.275 109.18792 87.86615 0 0 758.8284 -402.733" />
    <path d="M -107.9626 -340.10582 A 295.275 109.18792 267.86615 0 1 -59.89145 -373.71624" />
    <path d="M -856.72104 -402.73173 A 295.275 109.18792 87.86615 0 0 -867.71533 -403.81073 L -1675.44089 -373.71497 A 295.275 109.18792 267.86615 0 1 -1664.4466 -372.63596 A 295.275 109.18792 267.86615 0 1 -1641.77793 -361.00779" />
    <path d="M -799.47117 -346.15958 A 295.275 109.18792 87.86615 0 0 -856.72104 -402.73173" />
    <path d="M -1563.22598 58.053 A 295.275 109.18792 267.86615 0 1 -1653.45232 216.42553 A 295.275 109.18792 267.86615 0 1 -1765.66722 10.91194" />
    <path d="M -1687.11527 -371.56517 A 295.275 109.18792 267.86615 0 1 -1675.44089 -373.71497" />
    <path d="M -633.88192 -350.84076 A 295.275 109.18792 87.86615 0 0 -644.8762 -351.91977 L -1452.60176 -321.824 A 295.275 109.18792 267.86615 0 1 -1441.60748 -320.745 A 295.275 109.18792 267.86615 0 1 -1418.93881 -309.11683" />
    <path d="M -594.43717 -321.97983 A 295.275 109.18792 87.86615 0 0 -633.88192 -350.84076" />
    <path d="M -1340.38686 109.94396 A 295.275 109.18792 267.86615 0 1 -1430.61319 268.31649 A 295.275 109.18792 267.86615 0 1 -1542.8281 62.80291" />
    <path d="M -1464.27615 -319.67421 A 295.275 109.18792 267.86615 0 1 -1452.60176 -321.824" />
    <path d="M 83.18017 -560.0664 A 295.275 109.18792 87.86615 0 0 72.18589 -561.14541 L -735.53968 -531.04964 A 295.275 109.18792 267.86615 0 1 -724.54539 -529.97063 A 295.275 109.18792 267.86615 0 1 -652.99398 -442.11207" />
    <path d="M 140.43004 -503.49425 A 295.275 109.18792 87.86615 0 0 83.18017 -560.0664" />
    <path d="M -811.23807 -436.21591 A 295.275 109.18792 267.86615 0 1 -735.53968 -531.04964" />
    <path d="M 306.0193 -508.17544 A 295.275 109.18792 87.86615 0 0 295.02501 -509.25444 L -512.70055 -479.15868 A 295.275 109.18792 267.86615 0 1 -501.70626 -478.07967 A 295.275 109.18792 267.86615 0 1 -462.26152 -449.21874" />
    <path d="M 345.46404 -479.31451 A 295.275 109.18792 87.86615 0 0 306.0193 -508.17544" />
    <path d="M -560.7717 -445.54826 A 295.275 109.18792 267.86615 0 1 -512.70055 -479.15868" />
    <path d="M -1309.53015 -508.17416 A 295.275 109.18792 87.86615 0 0 -1320.52443 -509.25317 L -2128.24999 -479.1574 A 295.275 109.18792 267.86615 0 1 -2117.25571 -478.07839 A 295.275 109.18792 267.86615 0 1 -2094.58704 -466.45022" />
    <path d="M -1252.28027 -451.60201 A 295.275 109.18792 87.86615 0 0 -1309.53015 -508.17416" />
    <path d="M -2016.03509 -47.38944 A 295.275 109.18792 267.86615 0 1 -2106.26142 110.9831 A 295.275 109.18792 267.86615 0 1 -2218.47633 -94.53049" />
    <path d="M -2139.92438 -477.00761 A 295.275 109.18792 267.86615 0 1 -2128.24999 -479.1574" />
    <path d="M -1086.69102 -456.2832 A 295.275 109.18792 87.86615 0 0 -1097.68531 -457.36221 L -1905.41087 -427.26644 A 295.275 109.18792 267.86615 0 1 -1894.41658 -426.18743 A 295.275 109.18792 267.86615 0 1 -1871.74791 -414.55926" />
    <path d="M -1047.24628 -427.42227 A 295.275 109.18792 87.86615 0 0 -1086.69102 -456.2832" />
    <path d="M -1793.19596 4.50152 A 295.275 109.18792 267.86615 0 1 -1883.4223 162.87406 A 295.275 109.18792 267.86615 0 1 -1995.6372 -42.63953" />
    <path d="M -1917.08525 -425.11664 A 295.275 109.18792 267.86615 0 1 -1905.41087 -427.26644" />
    <path d="M 735.53968 554.54803 L -72.18589 584.6438" />
    <path d="M 2128.24999 502.65579 L 1320.52443 532.75156" />
    <path d="M -364.26682 473.21265 L -524.99499 479.20136" />
    <path d="M 1028.4435 421.32041 L 867.71533 427.30912" />
    <path d="M -140.43004 526.99264 L -295.02501 532.75283" />
    <path d="M 1252.28027 475.10041 L 1097.68531 480.8606" />
    <path d="M -593.23915 421.55021 L -747.83411 427.3104" />
    <path d="M -1046.04825 316.10777 L -1200.64322 321.86796" />
    <path d="M -817.07592 367.77021 L -977.80409 373.75893" />
    <path d="M -1498.85735 210.66534 L -1653.45232 216.42553" />
    <path d="M -1269.88502 262.32778 L -1430.61319 268.31649" />
    <path d="M -1951.66645 105.2229 L -2106.26142 110.9831" />
    <path d="M -1722.69412 156.88534 L -1883.4223 162.87406" />
</svg>